# xmcd
#
# Track frame offsets:
#	150
#	13592
#	26175
#	39145
#	52020
#	56720
#	62627
#	72880
#	86030
#	99195
#	108880
#	120367
#	133547
#	144790
#	156577
#	164975
#	175335
#	183812
#	196242
#	206550
#	223282
#	232042
#	244315
#	247840
#	258757
#
# Disc length: 3588
#
# Revision: 2
# Processed by: cddbd v1.5.1PL0 Copyright (c) Steve Scherf et al.
# Submitted via: CDex 1.50Beta7
# Normalized: r1:TDELIM( - )
#
DISCID=620e0219
DTITLE=Various Artist - Country Classics Vol 1
DYEAR=1996
DGENRE=Country
TTITLE0=Lynn Anderson - Rose Garden
TTITLE1=Frankie Laine - High Noon
TTITLE2=Kenny Rogers - Ruby
TTITLE3=Billie Jo Spears - Dallas
TTITLE4=Glen Campbell - Galveston
TTITLE5=Tammy Wynette - Welcome To My World
TTITLE6=Willie Nelson - Broken Promises
TTITLE7=Dotty West - D.I.V.O.R.C.E.
TTITLE8=Don Williams - Where Do I Go From Home
TTITLE9=Freddy Fender - But I Do
TTITLE10=Patsy Cline - Let The Teardrops Fall
TTITLE11=Guy Mitchell - She Wears Red Feathers
TTITLE12=Anne Murray - The Last Thing On My Mind
TTITLE13=Roy Drusky - Three Heartsin A Tangle
TTITLE14=Burl Ives - Funny Way Of Laughin'
TTITLE15=Ferlin Husky - Wings Of A Dove
TTITLE16=Glen Campbell - Witchita Lineman
TTITLE17=Billie Jo Spears - The Cheatin' Kid
TTITLE18=Dave Dudley - Six Days On The Road
TTITLE19=Lynn Anderson - Blue Bayou
TTITLE20=Patsy Cline - Try Again
TTITLE21=Willie Nelson - Shelter Of My Arms
TTITLE22=Tammy Wynette - Amazing Grace
TTITLE23=Kenny Rogers - Always Leaving, Always Gone
TTITLE24=Frankie Laine - I Believe
EXTD=YEAR: 1996
EXTT0=
EXTT1=
EXTT2=
EXTT3=
EXTT4=
EXTT5=
EXTT6=
EXTT7=
EXTT8=
EXTT9=
EXTT10=
EXTT11=
EXTT12=
EXTT13=
EXTT14=
EXTT15=
EXTT16=
EXTT17=
EXTT18=
EXTT19=
EXTT20=
EXTT21=
EXTT22=
EXTT23=
EXTT24=
PLAYORDER=
